<svg class="imdb-icon" xmlns="http://www.w3.org/2000/svg" xmlns:xlink="http://www.w3.org/1999/xlink" x="0px" y="0px"
	 viewBox="0 0 813.4 378.1" style="enable-background:new 0 0 813.4 378.1;" xml:space="preserve">
	<path d="M0,344.9C0,241,0,137.1,0,33.2c0.1-0.3,0.3-0.7,0.3-1C2.9,13.9,18.8,0,37.3,0C274.2,0,539.1,0,776,0
		c20.5,0,37.4,16.8,37.4,37.3c0,101,0,202.1,0,303.1c0,16.5-10.3,30.8-26,35.8c-2.4,0.8-4.8,1.2-7.3,1.8c-269.6,0-537.3,0-746.9,0
		c-0.3-0.1-0.7-0.3-1-0.3C17.1,375,6.9,366.5,1.8,351.9C1,349.6,0.6,347.2,0,344.9z M328.4,155.3c0.2,0,0.4,0,0.5,0
		c0,49.9,0,99.9,0,149.9c1,0,1.7,0,2.3,0c15.8,0,31.6,0,47.4,0c1.9,0,2.3-0.5,2.3-2.4c0-74.5,0-149,0-223.6c0-0.7,0-1.3,0-2.1
		c-26,0-51.8,0-77.8,0c-4.5,34.8-9,69.5-13.5,104.2c-0.2,0-0.3,0-0.5,0c-5-34.7-10.1-69.4-15.1-104.1c-25.9,0-51.6,0-77.2,0
		c0,76,0,151.8,0,227.8c17.4,0,34.6,0,52.2,0c0-49.1,0-98.1,0-147.1c1.1,4.7,1.8,9.4,2.4,14.2c2.2,14.8,4.4,29.7,6.5,44.5
		c1.9,13.1,3.8,26.3,5.7,39.4c2.3,15.9,4.6,31.7,6.9,47.6c0.2,1.2,0.5,1.7,1.8,1.7c11.3,0,22.6,0,34,0c1.3,0,1.8-0.4,1.9-1.7
		c1-7.7,2.1-15.5,3.1-23.2c1.4-10.4,2.8-20.8,4.2-31.2c1.5-11.4,3.1-22.9,4.6-34.3c1.4-10.5,2.8-21.1,4.3-31.6
		C325.8,173.9,327.1,164.6,328.4,155.3z M429.2,77.2c0,76.1,0,152,0,228c0.6,0,1.1,0.1,1.6,0.1c27.6-0.1,55.1-0.1,82.7-0.3
		c8.1-0.1,16.2-0.8,24-3.2c14-4.3,22.3-13.5,24.5-28.1c1.6-10,1.9-20.1,2-30.1c0.1-28.8,0.2-57.6,0-86.4c-0.1-12.4-0.7-24.8-1.3-37.2
		c-0.5-10.5-4.5-19.7-11.9-27.2c-6.7-6.8-15.1-10.2-24.2-12.1c-12.6-2.7-25.4-3.1-38.1-3.3c-19-0.2-37.9-0.1-56.9-0.1
		C430.8,77.2,430,77.2,429.2,77.2z M661.3,291.3c0.3,0.1,0.3,0.1,0.4,0.1c0.3,0.3,0.5,0.5,0.7,0.8c6.3,7,13.6,12.5,23,14.5
		c11.3,2.5,22.5,2.5,33-3.1c10-5.3,17-13.1,18.5-24.7c1-7.5,1.7-15.2,1.7-22.8c0.2-20,0.1-40,0.1-60c0-10.4-0.1-20.8-0.7-31.2
		c-0.6-11.3-6.2-19.8-16.2-25.1c-7.8-4.1-16.2-5.1-24.9-4.9c-13.5,0.2-25.3,4.5-34.5,14.8c-0.2,0.2-0.5,0.4-1.1,0.8
		c0-24.7,0-49,0-73.4c-19.2,0-38.3,0-57.2,0c0,76.1,0,152,0,227.9c0.4,0,0.6,0.1,0.9,0.1c17.1,0,34.2,0,51.3,0c1.1,0,1.6-0.4,1.7-1.4
		c0.1-0.7,0.4-1.4,0.6-2.1C659.5,298.3,660.4,294.8,661.3,291.3z M97.2,77.2c0,0.7,0,1.3,0,1.9c0,74.7,0,149.4,0,224.1
		c0,1.6,0.4,2.1,2,2.1c18.5-0.1,37-0.1,55.6,0c1.7,0,2-0.6,2-2.1c0-74.6,0-149.3,0-223.9c0-0.7,0-1.3,0-2
		C136.8,77.2,117.1,77.2,97.2,77.2z M498.3,264.5c4.1-0.9,6.7-3.6,7.1-7.9c0.7-7.4,1.5-14.9,1.6-22.4c0.2-30.8,0.1-61.6,0.1-92.4
		c0-4.7-0.2-9.5-0.5-14.2c-0.3-3.9-1.3-7.6-5.3-9.5c-4-1.9-8.3-1.9-12.6-1.8c0,49.9,0,99.5,0,149.7
		C492,265.5,495.2,265.2,498.3,264.5z M681.3,221.8c0-9.8,0.1-19.7,0-29.5c-0.1-5.6-0.6-11.2-1.1-16.7c-0.3-3.8-2.7-5.8-6.2-6.7
		c-1.5-0.4-3.2-0.6-4.7-0.6c-4,0-6.2,1.9-6.8,5.9c-0.6,4.4-1,8.8-1,13.2c-0.1,22.6-0.1,45.2,0,67.7c0,4.8,0.6,9.6,1.4,14.3
		c0.6,3.5,2.7,5.3,6.3,5.4c2.3,0.1,4.6-0.5,6.8-1.1c2.4-0.7,3.8-2.5,4.1-5c0.4-3.5,0.9-7,1-10.5c0.1-12.2,0-24.4,0-36.5
		C681.2,221.8,681.2,221.8,681.3,221.8z" fill="#fff"/>
</svg>
