<?xml version="1.0" encoding="UTF-8"?><svg id="Layer_1" xmlns="http://www.w3.org/2000/svg" viewBox="0 0 200 177.78"><defs><style>.cls-1{fill:#fff;stroke-width:0px;}</style></defs><path class="cls-1" d="M100,78.93c-9.1-17.6-33.7-50.4-56.7-66.6C21.4-3.17,13-.47,7.5,1.93,1.2,4.83,0,14.63,0,20.33s3.1,47.1,5.2,54c6.8,22.8,30.9,30.5,53.2,28,1.1-.2,2.3-.3,3.5-.5-1.2.2-2.3.3-3.5.5-32.6,4.8-61.6,16.7-23.6,59,41.8,43.2,57.2-9.3,65.2-35.9,7.9,26.6,17.1,77.3,64.4,35.9,35.6-35.9,9.8-54.2-22.8-59-1.2-.1-2.3-.3-3.5-.5,1.2.1,2.3.3,3.5.5,22.2,2.5,46.4-5.2,53.2-28,2.1-6.9,5.2-48.2,5.2-54s-1.2-15.5-7.5-18.4c-5.5-2.5-13.9-5.2-35.8,10.3-23,16.3-47.6,49.1-56.7,66.7"/></svg>