<svg xmlns="http://www.w3.org/2000/svg" xmlns:xlink="http://www.w3.org/1999/xlink" x="0px" y="0px"
	 viewBox="0 0 1175.1 111.8" style="enable-background:new 0 0 1175.1 111.8;" xml:space="preserve">
	<path d="M419.3,111.8h-17.9l9.1-18.8L419.3,111.8z M454.9,0l54.3,111.8h-17.9l-45.2-94.1L454.9,0z M792.7,93l-9.1,18.8
		h17.9L792.7,93z M845.5,111.8L791.1,0l-53.4,111.8h17.9l36.2-74.6l35.8,74.6H845.5z M946.1,27.8c0-16.6-12.6-27.8-31.6-27.8
		c0,0,13.7,0,13.7,27.8c0,26.2-12.3,27.2-13.6,27.2C933.5,54.9,946.1,44.1,946.1,27.8z M945.6,78c0-22.1-24.1-23-31-23
		c-0.2,0,13.1,0.8,13.1,26.1c0,42.6,40.7,28.5,40.7,28.5C954.7,109.6,945.6,96.9,945.6,78z M989.8,111.8L1044.9,0l17.9,0L1008,111.8
		H989.8z M992.1,0l-8.9,18.7L974.2,0L992.1,0z M1166,93l9.1,18.8h-17.9L1166,93z M1130.4,17.7l-45.2,94.1h-17.9L1121.5,0L1130.4,17.7
		z M880.3,55.8l8.9-4.3V0h-17.9v93l17.9,18.8V60.2L880.3,55.8z M539.9,55.9c0,55.7,34.2,55.9,34.2,55.9c-33.7,0-52.1-28-52.1-55.9
		C522,28,540.2,0,574.1,0C574.1,0,539.9,0.2,539.9,55.9z M600.9,18.8L582.1,0h18.8V18.8z M626.6,111.8V0h17.9v111.8H626.6z M678.5,57
		h-18l8.9-18.7L678.5,57z M694,111.8l17.9-18.7V0L694,0V111.8L694,111.8z M18.8,0H0v18.7L18.8,0z M55.6,0L37.7,18.7v93.1h17.9V0
		L55.6,0z M92.2,0H73.3l18.8,18.7V0z M295.8,46.3l-18.7,8.9l18.7,9.1V46.3z M249.1,55.8l9-4.3V0h-17.9v111.8h17.9V60.2L249.1,55.8z
		 M311.5,0h-18.8l9.4,9.3l9.4,9.3V0z M311.5,93.1l-10.5,10.5l-8.3,8.2h18.8V93.1z M136.6,111.8V0h-17.9v93.1L136.6,111.8L136.6,111.8
		z M161.5,38.3L152.5,57h18L161.5,38.3z M204,111.8V0h-17.9v111.8H204z" fill="#fff"/>
</svg>
